<svg width="299" height="63" viewBox="0 0 299 63" fill="none" xmlns="http://www.w3.org/2000/svg">
<path d="M140.433 29.6954C139.784 29.7055 139.166 29.9738 138.715 30.4414C138.263 30.909 138.014 31.5377 138.023 32.1895C138.023 45.971 127.376 57.1818 114.306 57.1818C101.237 57.1818 90.5474 45.9668 90.5474 32.1895C90.5474 18.4122 101.195 7.1972 114.285 7.1972C114.933 7.186 115.55 6.91719 116.001 6.44968C116.452 5.98217 116.7 5.35409 116.691 4.70308C116.7 4.05206 116.452 3.42398 116.001 2.95647C115.55 2.48896 114.933 2.22015 114.285 2.20895C98.5434 2.20895 85.7363 15.6585 85.7363 32.1895C85.7363 48.7205 98.5434 62.17 114.285 62.17C130.027 62.17 142.839 48.7205 142.839 32.1895C142.848 31.5385 142.599 30.9104 142.149 30.4429C141.698 29.9754 141.081 29.7066 140.433 29.6954Z" fill="#4C7AC2"/>
<path d="M182.111 2.20895C166.369 2.20895 153.562 15.6585 153.562 32.1895C153.562 48.7205 166.369 62.17 182.111 62.17C197.852 62.17 210.66 48.7205 210.66 32.1895C210.66 15.6585 197.869 2.20895 182.111 2.20895ZM205.827 32.1895C205.827 45.971 195.18 57.1818 182.111 57.1818C169.041 57.1818 158.394 45.9668 158.394 32.1895C158.394 18.4122 169.037 7.1972 182.111 7.1972C195.184 7.1972 205.865 18.408 205.865 32.1895H205.827Z" fill="#4C7AC2"/>
<path d="M45.0449 10.4542C38.1671 4.87005 27.5285 2.04395 13.4297 2.04395H3.84987C2.18546 2.04395 1.42738 3.21014 1.42738 4.29547C1.42738 5.38079 2.18546 6.55124 3.84987 6.55124H13.4297C26.3807 6.55124 35.9479 9.03685 41.8601 13.94C46.8788 18.06 49.4241 24.0995 49.4241 31.8883C49.4241 39.6771 46.883 45.7166 41.8517 49.8409C35.9479 54.7397 26.385 57.2253 13.4297 57.2253H6.09449V27.7811C6.10386 27.4771 6.05125 27.1743 5.9399 26.8915C5.82856 26.6087 5.66082 26.3517 5.44701 26.1365C5.2332 25.9212 4.97784 25.7522 4.69662 25.6397C4.4154 25.5273 4.11428 25.4739 3.81175 25.4827C3.50082 25.4641 3.18938 25.5098 2.89675 25.6171C2.60413 25.7244 2.33655 25.8909 2.11061 26.1064C1.88467 26.3219 1.70519 26.5817 1.58329 26.8698C1.46139 27.1579 1.39967 27.468 1.40197 27.7811V59.3832C1.38968 59.9207 1.56667 60.4453 1.90171 60.8644C2.13758 61.1495 2.4367 61.375 2.77505 61.5229C3.11339 61.6707 3.48153 61.7367 3.84987 61.7156H13.4297C27.5327 61.7156 38.1713 58.8853 45.0492 53.3054C51.1689 48.2831 54.2733 41.0689 54.2733 31.8713C54.2733 22.6737 51.1689 15.4765 45.0449 10.4542Z" fill="#4C7AC2"/>
<path d="M69.8207 2.04297C69.5103 2.0243 69.1994 2.06992 68.9073 2.17699C68.6152 2.28405 68.348 2.45029 68.1225 2.66538C67.897 2.88048 67.7178 3.13985 67.5961 3.42741C67.4744 3.71496 67.4128 4.02458 67.4151 4.33705V59.4333C67.4151 60.0609 67.6632 60.6629 68.1048 61.1066C68.5464 61.5504 69.1453 61.7998 69.7698 61.7998C70.3944 61.7998 70.9933 61.5504 71.4349 61.1066C71.8765 60.6629 72.1246 60.0609 72.1246 59.4333V4.33705C72.1335 4.03154 72.0799 3.72744 71.967 3.44364C71.8541 3.15984 71.6843 2.90239 71.4683 2.68726C71.2522 2.47214 70.9945 2.30394 70.7111 2.19311C70.4276 2.08227 70.1246 2.03117 69.8207 2.04297Z" fill="#4C7AC2"/>
<path d="M275.584 4.34131L275.546 4.25193C275.373 3.86181 275.092 3.53037 274.735 3.29772C274.379 3.06506 273.963 2.94117 273.538 2.94103H273.458C273.011 2.93783 272.576 3.08112 272.217 3.34917C271.859 3.61723 271.597 3.99543 271.472 4.42643L259.69 33.4749L247.954 4.32003L247.92 4.24342C247.735 3.84718 247.44 3.51329 247.07 3.28214C246.7 3.051 246.272 2.93252 245.836 2.94103C245.404 2.94227 244.981 3.07118 244.62 3.31178C244.259 3.55238 243.977 3.89408 243.808 4.29449L221.713 59.2588C221.531 59.5558 221.435 59.8975 221.434 60.2463C221.422 60.7657 221.591 61.273 221.911 61.6815C222.23 62.09 222.681 62.3743 223.186 62.4858C223.691 62.5974 224.219 62.5293 224.679 62.2931C225.14 62.057 225.505 61.6675 225.711 61.1911L245.841 11.198L257.301 39.4463L249.335 59.2588C249.152 59.5556 249.056 59.8975 249.055 60.2463C249.042 60.7672 249.211 61.2763 249.531 61.6861C249.851 62.096 250.303 62.381 250.81 62.4923C251.316 62.6035 251.846 62.5341 252.307 62.2959C252.768 62.0577 253.132 61.6656 253.337 61.1869L259.69 45.439L266.042 61.1869L266.072 61.2592C266.286 61.7284 266.654 62.1091 267.115 62.3372C267.575 62.5653 268.1 62.6267 268.601 62.5112C269.101 62.3957 269.547 62.1104 269.862 61.7032C270.178 61.296 270.344 60.792 270.332 60.276C270.333 59.929 270.238 59.5887 270.057 59.2929L262.07 39.4463L273.534 11.198L293.647 61.1571L293.676 61.2294C293.89 61.6986 294.259 62.0793 294.719 62.3074C295.18 62.5355 295.705 62.5969 296.205 62.4814C296.706 62.3659 297.151 62.0806 297.467 61.6734C297.782 61.2662 297.948 60.7622 297.937 60.2463V59.7398L275.584 4.34131Z" fill="url(#paint0_radial_260_15)"/>
<defs>
<radialGradient id="paint0_radial_260_15" cx="0" cy="0" r="1" gradientUnits="userSpaceOnUse" gradientTransform="translate(259.685 32.7544) rotate(90) scale(29.8138 38.2522)">
<stop stop-color="#4C7AC2" stop-opacity="0.53"/>
<stop offset="1" stop-color="#4C7AC2"/>
</radialGradient>
</defs>
</svg>
